<?xml version="1.0" encoding="utf-8"?>
<!-- Generator: Adobe Illustrator 23.0.3, SVG Export Plug-In . SVG Version: 6.00 Build 0)  -->
<svg version="1.1" id="Capa_1" xmlns="http://www.w3.org/2000/svg" xmlns:xlink="http://www.w3.org/1999/xlink" x="0px" y="0px"
	 viewBox="0 0 512 512" style="enable-background:new 0 0 512 512;" xml:space="preserve">
<style type="text/css">
	.st0{fill:#DF314D;}
</style>
<g>
	<path class="st0" d="M437,75C388.7,26.6,324.4,0,256,0c-41,0-80.2,9.4-116.4,28c-3.7,1.9-5.1,6.4-3.3,10.1
		c1.9,3.7,6.4,5.1,10.1,3.3C180.5,23.9,217.4,15,256,15c132.9,0,241,108.1,241,241c0,71.2-31.2,138.3-85.7,184.3
		c-3.2,2.7-3.6,7.4-0.9,10.6c1.5,1.8,3.6,2.7,5.7,2.7c1.7,0,3.4-0.6,4.8-1.8c57.8-48.8,91-120.1,91-195.8
		C512,187.6,485.4,123.3,437,75L437,75z"/>
	<path class="st0" d="M383.9,460.3c-38.3,24-82.5,36.7-127.9,36.7C123.1,497,15,388.9,15,256c0-78.3,38.3-152,102.4-197.2
		c3.4-2.4,4.2-7.1,1.8-10.5s-7.1-4.2-10.4-1.8c-32.9,23.2-60.2,54.2-79,89.6C10.3,172.8,0,214.3,0,256c0,68.4,26.6,132.7,75,181
		c48.4,48.4,112.6,75,181,75c48.2,0,95.2-13.5,135.9-39c3.5-2.2,4.6-6.8,2.4-10.3C392.1,459.1,387.4,458.1,383.9,460.3z"/>
	<path class="st0" d="M380.1,85.4c19.6,14.2,36.8,31.9,50.8,52.6c2.3,3.4,7,4.3,10.4,2c3.4-2.3,4.3-7,2-10.4
		C401.8,67.9,331.3,29.9,256,30c-60.4,0-117.1,23.5-159.8,66.2C54.4,137.7,29.7,195.8,30,256c-0.2,58.8,23.5,117.5,66.2,159.8
		c41.5,41.8,99.6,66.5,159.8,66.2c58.8,0.2,117.5-23.5,159.8-66.2c41.8-41.5,66.5-99.6,66.2-159.8c0.1-31.9-6.9-65-20.8-94.8
		c-1.7-3.8-6.2-5.4-10-3.7c-3.8,1.7-5.4,6.2-3.7,10c6.1,13.2,10.8,26.9,14,40.9l-18.2,3.5c-10.4-44.5-37-84.2-73.7-111.1L380.1,85.4
		z M417,181.2l-46.5,19.3c-5.1-10.5-11.7-20.3-19.4-28.9l35.6-35.6C398.9,149.3,409.2,164.6,417,181.2z M386.6,376L351,340.4
		c7.7-8.7,14.3-18.4,19.4-28.9l46.5,19.3C409.2,347.4,398.9,362.7,386.6,376L386.6,376z M263.5,433.3V383c11.9-0.7,23.4-3,34.2-6.8
		l19.3,46.5C300.2,428.9,282.2,432.5,263.5,433.3z M195.1,422.7l19.3-46.6c10.8,3.8,22.3,6.1,34.2,6.8v50.3
		C230,432.6,212,428.9,195.1,422.7z M135.9,386.7l35.7-35.7c8.7,7.7,18.4,14.3,28.9,19.4L181.2,417
		C164.7,409.4,149.4,399.2,135.9,386.7z M125.4,136l35.6,35.6c-7.7,8.7-14.3,18.4-19.4,28.9L95,181.2
		C102.8,164.6,113.1,149.3,125.4,136L125.4,136z M248.5,78.7V129c-11.9,0.7-23.4,3-34.2,6.8l-19.3-46.5
		C211.8,83.1,229.8,79.5,248.5,78.7z M316.9,89.3l-19.3,46.5c-10.8-3.8-22.3-6.1-34.2-6.8V78.7C282.2,79.5,300.2,83.1,316.9,89.3z
		 M181.2,95l19.3,46.5c-10.5,5.1-20.3,11.7-28.9,19.4L136,125.4C149.3,113.1,164.6,102.8,181.2,95z M89.3,195.1l46.5,19.3
		c-3.8,10.8-6.1,22.3-6.8,34.2H78.7C79.5,229.8,83.1,211.8,89.3,195.1z M78.7,263.5H129c0.7,11.9,3,23.4,6.8,34.2l-46.5,19.3
		C83,299.8,79.5,281.8,78.7,263.5z M143.8,256c0-61.9,50.3-112.2,112.2-112.2S368.2,194.1,368.2,256S317.9,368.2,256,368.2
		S143.8,317.9,143.8,256z M330.8,417l-19.3-46.5c10.5-5.1,20.3-11.7,28.9-19.4l35.6,35.6C362.7,398.9,347.4,409.2,330.8,417z
		 M422.7,316.9l-46.5-19.3c3.8-10.8,6.1-22.3,6.8-34.2h50.4C432.5,282.2,428.9,300.2,422.7,316.9z M433.3,248.5H383
		c-0.7-11.9-3-23.4-6.8-34.2l46.5-19.3C428.9,211.8,432.5,229.8,433.3,248.5z M340.4,161c-8.7-7.7-18.4-14.3-28.9-19.4L330.8,95
		c16.6,7.8,31.9,18,45.2,30.3L340.4,161z M367.7,77l-10.4,15.4C327.9,74.1,293.1,63.5,256,63.5c-10,0-19.8,0.8-29.3,2.2l-3.5-18.2
		c10.7-1.7,21.7-2.6,32.9-2.6C296.1,45,334.7,56.4,367.7,77z M208.4,50.4l3.5,18.2C167,79.3,128,105.3,100.8,142.3l-15.3-10.3
		C114.9,91.6,158.2,62,208.4,50.4z M77,144.3l15.3,10.3C74.1,184.1,63.5,218.9,63.5,256c0,9.8,0.8,19.7,2.3,29.3l-18.2,3.5
		C45.9,278.2,45,267.2,45,256C45,215,56.8,176.7,77,144.3z M50.4,303.6l18.2-3.5c4,16.9,10.2,33.3,18.5,48.5c2,3.6,6.6,5,10.2,3
		c3.6-2,5-6.6,3-10.2c-1.9-3.4-3.7-7-5.3-10.5l46.6-19.3c5.1,10.5,11.7,20.3,19.4,28.9l-35.7,35.7c-2.1-2.3-4.1-4.6-6.1-7
		c-2.6-3.2-7.4-3.6-10.6-1c-3.2,2.6-3.6,7.4-1,10.6c9.3,11.3,22,23.4,34.6,32.7l-10.3,15.2C91.6,397.1,62,353.8,50.4,303.6
		L50.4,303.6z M144.3,435l10.3-15.3c30.1,18.7,65,28.8,101.4,28.8c10,0,19.8-0.8,29.3-2.2l3.5,18.2c-10.7,1.7-21.7,2.6-32.9,2.6
		C215,467,176.7,455.2,144.3,435L144.3,435z M303.6,461.6l-3.5-18.2c44.9-10.7,83.9-36.7,111.1-73.7l15.3,10.3
		C397.1,420.4,353.8,450,303.6,461.6L303.6,461.6z M464.5,223.1c1.7,10.8,2.5,21.8,2.5,32.9c0,41-11.8,79.3-32,111.7l-15.3-10.3
		c18.3-29.4,28.9-64.2,28.9-101.3c0-10-0.8-19.8-2.2-29.3L464.5,223.1z"/>
	<path class="st0" d="M203.2,263.5h16c3,14.7,14.6,26.3,29.2,29.2v16c-8.7,3.1-15,11.4-15,21.2c0,12.4,10.1,22.5,22.5,22.5
		c12.4,0,22.5-10.1,22.5-22.5c0-9.8-6.3-18.1-15-21.2v-16c14.7-3,26.3-14.6,29.2-29.2h16c3.1,8.7,11.4,15,21.2,15
		c12.4,0,22.5-10.1,22.5-22.5s-10.1-22.5-22.5-22.5c-9.8,0-18.1,6.3-21.2,15h-16c-3-14.7-14.6-26.3-29.2-29.2v-16
		c8.7-3.1,15-11.4,15-21.2c0-12.4-10.1-22.5-22.5-22.5s-22.5,10.1-22.5,22.5c0,9.8,6.3,18.1,15,21.2v16c-14.7,3-26.3,14.6-29.2,29.2
		h-16c-3.1-8.7-11.4-15-21.2-15c-12.4,0-22.5,10.1-22.5,22.5c0,12.4,10.1,22.5,22.5,22.5C191.8,278.5,200.1,272.2,203.2,263.5
		L203.2,263.5z M256,337.5c-4.1,0-7.5-3.4-7.5-7.5s3.4-7.5,7.5-7.5c4.1,0,7.5,3.4,7.5,7.5S260.1,337.5,256,337.5z M330,248.5
		c4.1,0,7.5,3.4,7.5,7.5c0,4.1-3.4,7.5-7.5,7.5s-7.5-3.4-7.5-7.5S325.9,248.5,330,248.5z M256,174.5c4.1,0,7.5,3.4,7.5,7.5
		s-3.4,7.5-7.5,7.5s-7.5-3.4-7.5-7.5S251.9,174.5,256,174.5z M256,233.5c12.4,0,22.5,10.1,22.5,22.5s-10.1,22.5-22.5,22.5
		s-22.5-10.1-22.5-22.5S243.6,233.5,256,233.5z M174.5,256c0-4.1,3.4-7.5,7.5-7.5s7.5,3.4,7.5,7.5c0,4.1-3.4,7.5-7.5,7.5
		S174.5,260.1,174.5,256z"/>
	<path class="st0" d="M256,263.5c4.1,0,7.5-3.4,7.5-7.5s-3.4-7.5-7.5-7.5h0c-4.1,0-7.5,3.4-7.5,7.5S251.9,263.5,256,263.5z"/>
</g>
</svg>
