<svg enable-background="new 0 0 512 512" fill="#FFFFFF" height="512" viewBox="0 0 512 512" width="512" xmlns="http://www.w3.org/2000/svg"><g id="_x30_5_Sugar"><g><path d="m126.921 355.207c42.542 0 79.986-28.607 93.891-71.444 76.378-26.535 147.84-28.012 224.981-4.634 17.379 5.205 34.674-5.932 38.156-22.724 0 0 0-.002 0-.005 3.353-16.279-7.148-32.248-23.41-35.601-86.413-17.853-163.596-10.589-242.819 22.887h-185.531c-2.632 0-4.762 2.132-4.762 4.762 0 58.867 44.634 106.759 99.494 106.759zm91.766-101.997c.642 0 1.274-.128 1.86-.379 77.671-33.001 153.314-40.214 238.067-22.703 11.119 2.29 18.299 13.212 16.007 24.347-2.311 11.172-13.82 19.185-26.382 15.469-79.628-24.159-153.616-22.368-232.844 5.625-1.432.505-2.534 1.663-2.976 3.118-12.063 40.072-46.42 66.996-85.497 66.996-48.131 0-87.557-41.061-89.864-92.473z"/><path d="m108.901 175.456c6.617-4.12 12.04-7.069 14.858-8.545 10.491 5.536 57.242 31.685 70.253 64.268.96 2.405 3.694 3.646 6.19 2.658 2.441-.974 3.632-3.746 2.655-6.187-15.969-40.005-74.504-69.146-76.987-70.367-1.325-.651-2.874-.653-4.199-.002-.307.151-7.617 3.751-17.802 10.089-2.232 1.39-2.916 4.327-1.525 6.559 1.391 2.234 4.33 2.915 6.557 1.527z"/><path d="m47.33 233.835c2.461.984 5.218-.221 6.19-2.646 2.334-5.811 5.822-11.679 10.366-17.446 1.628-2.065 1.274-5.06-.791-6.687-2.065-1.625-5.055-1.272-6.687.791-5.111 6.48-9.054 13.142-11.724 19.794-.981 2.441.205 5.212 2.646 6.194z"/><path d="m73.21 203.23c2.427-2.467 5.157-5.008 8.84-8.236 1.976-1.732 2.176-4.741.442-6.72-1.735-1.983-4.743-2.174-6.72-.442-3.864 3.385-6.748 6.073-9.352 8.715-1.842 1.874-1.818 4.888.051 6.734 1.878 1.846 4.886 1.825 6.739-.051z"/><path d="m79.497 230.672c2.52.874 5.209-.491 6.059-2.941 2.823-8.147 8.399-15.151 15.709-19.722 2.228-1.393 2.906-4.332 1.511-6.562-1.39-2.228-4.325-2.909-6.562-1.511-9.147 5.718-16.128 14.484-19.662 24.68-.859 2.482.457 5.196 2.945 6.056z"/><path d="m151.196 206.562c2.274-1.321 3.051-4.234 1.73-6.508-3.688-6.359-9.333-11.686-15.9-15-2.344-1.184-5.208-.244-6.394 2.104s-.242 5.213 2.107 6.397c4.929 2.49 9.175 6.497 11.947 11.275 1.314 2.269 4.224 3.052 6.51 1.732z"/><path d="m136.059 223.229c-3.339 1.225-7.292.865-10.347-.944-2.251-1.349-5.176-.598-6.524 1.665-1.339 2.262-.595 5.183 1.669 6.524 5.591 3.32 12.516 3.897 18.495 1.688 2.469-.909 3.73-3.648 2.823-6.115-.912-2.467-3.674-3.743-6.116-2.818z"/></g></g></svg>