<svg id="Capa_1" enable-background="new 0 0 512 512" height="512" viewBox="0 0 512 512" width="512" xmlns="http://www.w3.org/2000/svg"><path d="m485.263 15.492c0 4.277-1.729 8.15-4.536 10.946-2.796 2.806-6.669 4.536-10.946 4.536h-427.562c-8.554 0-15.482-6.928-15.482-15.482 0-4.277 1.729-8.15 4.536-10.956 2.796-2.807 6.669-4.536 10.946-4.536h427.562c8.554 0 15.482 6.938 15.482 15.492z" fill="#dd8858"/><path d="m480.727 10.951c-2.796 2.806-6.669 4.536-10.946 4.536h-427.562c-5.73 0-10.718-3.117-13.395-7.74-1.32 2.281-2.087 4.921-2.087 7.745 0 8.554 6.928 15.482 15.482 15.482h427.562c4.277 0 8.15-1.729 10.946-4.536 2.806-2.796 4.536-6.669 4.536-10.946 0-2.824-.767-5.464-2.087-7.744-.679 1.171-1.496 2.254-2.449 3.203z" fill="#ca6d36"/><path d="m434.344 30.974v475.853c0 3.49-3.387 5.977-6.717 4.933l-52.735-16.534v-464.252z" fill="#bb93df"/><path d="m374.893 30.974v464.251l-59.441-18.64v-445.611z" fill="#52dbff"/><path d="m315.452 30.974v445.611l-59.452-18.64v-426.971z" fill="#00dcab"/><path d="m256 30.974v426.971l-59.452 18.64v-445.611z" fill="#fd0"/><path d="m196.548 30.974v445.611l-59.441 18.64v-464.251h37.248z" fill="#ff8522"/><path d="m137.107 30.974v464.252l-52.735 16.534c-3.33 1.044-6.717-1.443-6.717-4.933v-475.853z" fill="#fa496e"/><path d="m374.893 30.974h59.451v18.64h-59.451z" fill="#9e7dcc"/><path d="m315.452 30.974h59.441v18.64h-59.441z" fill="#2dcef9"/><path d="m256 30.974h59.451v18.64h-59.451z" fill="#10c68e"/><path d="m196.548 30.974h59.452v18.64h-59.452z" fill="#ffc239"/><path d="m137.107 30.974h59.441v18.64h-59.441z" fill="#ff7224"/><path d="m77.656 30.974h59.451v18.64h-59.451z" fill="#e23760"/></svg>