<svg xmlns="http://www.w3.org/2000/svg" version="1.1" xmlns:xlink="http://www.w3.org/1999/xlink" xmlns:svgjs="http://svgjs.com/svgjs" width="512" height="512" x="0" y="0" viewBox="0 0 46.47 46.47" style="enable-background:new 0 0 512 512" xml:space="preserve" class=""><g><path d="M46.222 41.889a2.998 2.998 0 0 1-1.562 3.943 2.997 2.997 0 0 1-3.944-1.562c-2.893-6.689-9.73-11.012-17.421-11.012-7.868 0-14.747 4.32-17.523 11.004a3.003 3.003 0 0 1-3.922 1.621 3.002 3.002 0 0 1-1.62-3.922c3.71-8.932 12.764-14.703 23.064-14.703 10.085.002 19.085 5.744 22.928 14.631zM2.445 6.559a6.202 6.202 0 1 1 12.399.001A6.202 6.202 0 0 1 2.445 6.56zm28.117 0a6.202 6.202 0 1 1 12.403.001 6.202 6.202 0 0 1-12.403-.001z" fill="#ffffff" data-original="#000000" opacity="1" class=""></path></g></svg>