<svg xmlns="http://www.w3.org/2000/svg" version="1.1" xmlns:xlink="http://www.w3.org/1999/xlink" xmlns:svgjs="http://svgjs.com/svgjs" width="512" height="512" x="0" y="0" viewBox="0 0 64 64" style="enable-background:new 0 0 512 512" xml:space="preserve" class=""><g><g fill="#000"><path fill-rule="evenodd" d="M18 6C11.373 6 6 11.373 6 18v28c0 .385.018.765.054 1.14l4.535-7.256c5.028-8.044 16.432-8.865 22.56-1.623l5.168 6.108c4.571-6.905 15.1-6.994 19.683.172V32a2 2 0 1 1 4 0v14c0 8.837-7.163 16-16 16H18C9.163 62 2 54.837 2 46V18C2 9.163 9.163 2 18 2h14a2 2 0 1 1 0 4zm38.846 45.14-1.724-3.563c-2.88-5.948-11.308-5.795-14.053.044l8.36 9.882a12.032 12.032 0 0 0 7.417-6.362zM18 58a11.994 11.994 0 0 1-10.333-5.895l.029-.045 6.285-10.056c3.591-5.746 11.737-6.332 16.114-1.16L44.61 58z" clip-rule="evenodd" fill="#ffffff" data-original="#000000" opacity="1" class=""></path><path d="M59.338 15.487a2 2 0 0 1-2.825-.15L51 9.213V26a2 2 0 1 1-4 0V9.212l-5.513 6.126a2 2 0 0 1-2.974-2.676l6.027-6.696a6 6 0 0 1 8.92 0l6.027 6.696a2 2 0 0 1-.15 2.825z" fill="#ffffff" data-original="#000000" opacity="1" class=""></path></g></g></svg>