<?xml version="1.0" encoding="utf-8"?>
<!-- Generator: Adobe Illustrator 23.0.3, SVG Export Plug-In . SVG Version: 6.00 Build 0)  -->
<svg version="1.1" id="Layer_1" xmlns="http://www.w3.org/2000/svg" xmlns:xlink="http://www.w3.org/1999/xlink" x="0px" y="0px"
	 viewBox="0 0 250 250" style="enable-background:new 0 0 250 250;" xml:space="preserve">
<style type="text/css">
	.st0{display:none;fill:#2E0E5D;}
	.st1{clip-path:url(#SVGID_2_);fill:#DF314D;}
	.st2{clip-path:url(#SVGID_2_);fill:#F0A734;}
	.st3{clip-path:url(#SVGID_2_);fill:#FB0001;}
	.st4{clip-path:url(#SVGID_2_);fill:#FFFFFF;}
	.st5{clip-path:url(#SVGID_2_);fill:#FCC178;}
</style>
<rect x="-1875" y="-1875" class="st0" width="4000" height="4000"/>
<g>
	<defs>
		<rect id="SVGID_1_" x="9.1" y="10" width="229.6" height="229.6"/>
	</defs>
	<clipPath id="SVGID_2_">
		<use xlink:href="#SVGID_1_"  style="display:none;overflow:visible;"/>
	</clipPath>
	<path class="st1" d="M232.6,122.7c0-0.4,0-0.7,0-1.1c0-1-0.1-1.9-0.1-2.9c0-0.2,0-0.4,0-0.6c0-0.5-0.1-0.9-0.1-1.4
		c0-0.1,0-0.2,0-0.2c0-0.2,0-0.4,0-0.6c0-0.4-0.1-0.8-0.1-1.1c-0.1-0.7-0.1-1.4-0.2-2c-0.1-1.1-0.2-2.1-0.4-3.2c0-0.1,0-0.3-0.1-0.4
		c-0.2-1.2-0.4-2.4-0.6-3.6c-0.1-0.3-0.1-0.6-0.2-0.9c-0.1-0.5-0.2-1-0.3-1.4c-0.1-0.3-0.1-0.7-0.2-1c-0.1-0.5-0.2-0.9-0.3-1.4
		c-0.1-0.4-0.2-0.8-0.3-1.1c0,0,0,0,0-0.1c-0.1-0.4-0.2-0.7-0.3-1.1c-0.1-0.5-0.3-1-0.4-1.6c-0.1-0.3-0.1-0.5-0.2-0.8
		c-0.1-0.4-0.2-0.8-0.3-1.1c-0.9-3.3-2-6.5-3.3-9.6c-0.1-0.3-0.3-0.7-0.4-1c-0.1-0.2-0.1-0.4-0.2-0.5c-0.1-0.3-0.3-0.7-0.4-1
		c-0.6-1.4-1.2-2.8-1.9-4.2c-1.3,0.3-2.6,0.4-3.9,0.4c-6.5,0-12.1-3.3-15.5-8.3c-3.4,3.9-8.4,6.4-14,6.4c-7.8,0-14.4-4.7-17.2-11.5
		c-0.8-1.8-1.2-3.8-1.4-5.9c0-0.4,0-0.8,0-1.3c0-4.3,1.5-8.3,4-11.5c-6.2-3-10.4-9.4-10.4-16.7c0-1.7,0.2-3.3,0.6-4.8l-0.4-0.2
		c-0.5-0.2-0.9-0.3-1.4-0.5c-0.3-0.1-0.6-0.2-1-0.3c-1.1-0.4-2.3-0.8-3.5-1.1c-0.3-0.1-0.7-0.2-1-0.3c-1.1-0.3-2.3-0.6-3.4-0.9
		c-0.2-0.1-0.5-0.1-0.7-0.2c-1.3-0.3-2.7-0.6-4.1-0.9c-0.3-0.1-0.7-0.1-1-0.2c-0.4-0.1-0.8-0.2-1.3-0.2c-0.3-0.1-0.6-0.1-0.9-0.2
		c-0.3-0.1-0.7-0.1-1-0.2c-0.3,0-0.5-0.1-0.8-0.1c-0.2,0-0.5-0.1-0.7-0.1c-1.2-0.2-2.4-0.3-3.6-0.5c-0.4,0-0.8-0.1-1.2-0.1
		c-0.3,0-0.7-0.1-1-0.1c-0.2,0-0.4,0-0.7-0.1c-0.4,0-0.8-0.1-1.2-0.1c-0.2,0-0.5,0-0.7-0.1c-0.4,0-0.8-0.1-1.2-0.1
		c-0.3,0-0.5,0-0.8,0c-0.4,0-0.9,0-1.3-0.1c-0.4,0-0.8,0-1.2,0c-0.1,0-0.3,0-0.4,0c-0.8,0-1.6,0-2.5,0c-2.9,0-5.8,0.1-8.7,0.4
		c-38.5,3.2-71.1,27-86.6,60.5c-6.3,13.5-9.8,28.5-9.8,44.3c0,0.2,0,0.4,0,0.6c0,0.3,0,0.5,0,0.8c0,0.5,0,0.9,0,1.4
		c0,0.4,0,0.9,0,1.3c0,0.4,0,0.9,0.1,1.3c0,0.3,0,0.6,0,0.9c0,0.3,0,0.5,0.1,0.8c0,0.3,0,0.7,0.1,1c0,0.4,0.1,0.8,0.1,1.2
		c0,0.1,0,0.2,0,0.2c0,0.4,0.1,0.7,0.1,1.1c0,0.1,0,0.1,0,0.2c0,0.2,0,0.4,0.1,0.6c0,0.4,0.1,0.8,0.1,1.1c0.1,0.4,0.1,0.9,0.2,1.3
		c0.1,0.4,0.1,0.8,0.2,1.2c0,0.3,0.1,0.6,0.1,0.9c0,0.3,0.1,0.6,0.1,0.9c0,0.3,0.1,0.6,0.1,0.9c0.1,0.4,0.1,0.9,0.2,1.3
		c0.1,0.3,0.1,0.6,0.2,0.9c0,0.3,0.1,0.5,0.2,0.8c0.1,0.3,0.1,0.6,0.2,0.9c0.1,0.5,0.2,1,0.3,1.6c0.1,0.3,0.1,0.6,0.2,1
		c0.1,0.3,0.1,0.6,0.2,1c0.1,0.3,0.1,0.6,0.2,0.9c0.1,0.2,0.1,0.5,0.2,0.7c0.1,0.4,0.2,0.8,0.3,1.2c0.1,0.4,0.2,0.8,0.3,1.2
		c0.4,1.5,0.9,3,1.4,4.5c0.1,0.4,0.3,0.7,0.4,1.1c0.1,0.2,0.2,0.4,0.2,0.7l0.4,1c0.4,1.1,0.8,2.2,1.3,3.3c0.1,0.3,0.3,0.7,0.4,1
		c0.4,1,0.8,1.9,1.3,2.9c0.2,0.4,0.4,0.8,0.5,1.2c0.1,0.3,0.3,0.5,0.4,0.8c0.1,0.3,0.3,0.6,0.4,0.8c1.1,2.2,2.2,4.3,3.5,6.5
		c0.2,0.3,0.3,0.6,0.5,0.8c0.8,1.4,1.6,2.7,2.5,4c0.2,0.4,0.5,0.7,0.7,1.1c0.2,0.3,0.5,0.7,0.7,1c0.2,0.3,0.5,0.7,0.7,1
		c0.5,0.7,1,1.4,1.5,2c0.3,0.3,0.5,0.7,0.8,1c0.8,1,1.6,2,2.4,3c0.2,0.2,0.4,0.5,0.6,0.7c0.9,1.1,1.9,2.2,2.9,3.3
		c0.3,0.3,0.6,0.6,0.9,0.9c3.1,3.3,6.4,6.4,9.9,9.3c0.3,0.3,0.6,0.5,1,0.8c0.3,0.3,0.7,0.5,1,0.8c0.3,0.3,0.7,0.5,1,0.8
		c0.3,0.3,0.7,0.5,1,0.8c2.1,1.6,4.2,3,6.4,4.4c0.6,0.4,1.2,0.7,1.8,1.1c0.4,0.3,0.9,0.5,1.3,0.8c0.4,0.2,0.7,0.4,1.1,0.6
		c0.8,0.4,1.6,0.9,2.4,1.3c0.4,0.2,0.7,0.4,1.1,0.6c0.4,0.2,0.8,0.4,1.1,0.6c1.1,0.6,2.2,1.1,3.3,1.6c0.4,0.2,0.8,0.4,1.2,0.5
		c0.8,0.4,1.6,0.7,2.3,1c0.4,0.2,0.8,0.3,1.2,0.5c0.4,0.2,0.8,0.3,1.2,0.5c0.4,0.2,0.8,0.3,1.2,0.5c0.2,0.1,0.4,0.2,0.6,0.2
		c0.2,0.1,0.4,0.2,0.7,0.2c0.1,0.1,0.3,0.1,0.4,0.2c0.6,0.2,1.3,0.4,1.9,0.7c0.4,0.1,0.8,0.3,1.2,0.4c0.4,0.1,0.9,0.3,1.3,0.4
		c0.7,0.2,1.3,0.4,2,0.6c0.6,0.2,1.3,0.4,1.9,0.5c0.7,0.2,1.5,0.4,2.2,0.6c1.4,0.3,2.8,0.7,4.3,0.9c0.7,0.1,1.4,0.3,2.1,0.4
		c3,0.5,6.1,1,9.2,1.2c0.7,0.1,1.5,0.1,2.2,0.2c0.2,0,0.5,0,0.7,0c0.8,0,1.5,0.1,2.3,0.1c1.4,0.1,2.8,0.1,4.2,0.1c1.3,0,2.7,0,4-0.1
		c0.8,0,1.6-0.1,2.3-0.1c0.6,0,1.2-0.1,1.7-0.1c0.6,0,1.2-0.1,1.8-0.2c0.3,0,0.6-0.1,1-0.1c0.3,0,0.5-0.1,0.8-0.1
		c1.3-0.1,2.5-0.3,3.8-0.5c1.6-0.2,3.1-0.5,4.6-0.8c1-0.2,2-0.4,3-0.6v0c2.1-0.5,4.1-1,6.1-1.6c0.7-0.2,1.5-0.4,2.2-0.6
		c0.4-0.1,0.8-0.2,1.2-0.4c0.8-0.2,1.5-0.5,2.3-0.8c1.6-0.6,3.1-1.1,4.7-1.8c0.7-0.3,1.5-0.6,2.2-0.9c1.5-0.7,3-1.4,4.5-2.1
		c0.7-0.3,1.4-0.7,2.1-1.1c2.6-1.3,5.1-2.8,7.5-4.3c0.3-0.2,0.7-0.4,1-0.7c0.8-0.5,1.5-1,2.2-1.5c0.6-0.4,1.2-0.8,1.8-1.2
		c0.3-0.2,0.7-0.5,1-0.7c0.7-0.5,1.3-1,1.9-1.5c0.6-0.5,1.3-1,1.9-1.5c0.3-0.3,0.6-0.5,0.9-0.8c0.4-0.3,0.8-0.7,1.2-1
		c0.2-0.2,0.4-0.4,0.6-0.5c0.3-0.3,0.6-0.5,0.9-0.8c0.3-0.3,0.6-0.5,0.9-0.8c0.3-0.3,0.6-0.5,0.9-0.8c0.6-0.5,1.1-1,1.6-1.5
		c0.2-0.2,0.4-0.4,0.6-0.6c0.4-0.4,0.8-0.8,1.2-1.2c0.3-0.3,0.6-0.6,0.8-0.9c1.1-1.1,2.1-2.3,3.2-3.4c0.2-0.2,0.4-0.4,0.6-0.6
		c1.1-1.3,2.2-2.6,3.3-4c0.2-0.2,0.4-0.5,0.6-0.7c0.6-0.8,1.3-1.7,1.9-2.5c0.2-0.3,0.4-0.5,0.6-0.8c0.5-0.7,0.9-1.3,1.4-2
		c0.2-0.3,0.5-0.7,0.7-1c0.2-0.4,0.5-0.7,0.7-1.1c0.4-0.7,0.8-1.3,1.2-2c0.2-0.3,0.4-0.7,0.6-1c1.1-1.8,2.1-3.7,3.1-5.5
		c1.3-2.6,2.6-5.2,3.7-7.9c0.1-0.3,0.2-0.5,0.3-0.8c0.3-0.8,0.6-1.6,1-2.4c0.1-0.3,0.3-0.7,0.4-1c0.3-0.7,0.5-1.4,0.7-2.1
		c0.1-0.4,0.3-0.8,0.4-1.2c0.1-0.4,0.3-0.8,0.4-1.2c0.1-0.4,0.2-0.8,0.4-1.2c0.1-0.4,0.2-0.8,0.3-1.2c0.1-0.4,0.2-0.8,0.3-1.2
		c0.1-0.3,0.2-0.6,0.3-0.9c0.1-0.5,0.3-1,0.4-1.5c0.1-0.4,0.2-0.8,0.3-1.2c0.1-0.4,0.2-0.8,0.3-1.2c0.1-0.3,0.1-0.7,0.2-1
		c0.1-0.3,0.1-0.5,0.2-0.8c0.1-0.3,0.1-0.6,0.2-0.9c0.1-0.7,0.3-1.4,0.4-2.2c0.1-0.4,0.1-0.8,0.2-1.1c0.4-2.1,0.6-4.2,0.9-6.4
		c0.1-0.8,0.2-1.6,0.2-2.4c0-0.5,0.1-0.9,0.1-1.4c0-0.1,0-0.2,0-0.3c0.1-2.3,0.2-4.6,0.2-6.9C232.7,123.6,232.6,123.1,232.6,122.7
		 M149.7,158.7c-0.3,0.2-0.6,0.3-0.8,0.5c0,0,0,0,0,0c-0.3,0.2-0.6,0.3-0.8,0.5c-0.3,0.2-0.6,0.3-0.8,0.5c0,0,0,0,0,0
		c-0.3,0.2-0.6,0.3-0.9,0.5c0,0,0,0,0,0c-0.3,0.1-0.6,0.3-0.9,0.4c-0.6,0.3-1.2,0.6-1.8,0.8c-0.3,0.1-0.6,0.3-0.9,0.4
		c-0.6,0.2-1.2,0.5-1.9,0.7c0,0,0,0-0.1,0c-0.6,0.2-1.2,0.4-1.9,0.6c-1,0.3-2,0.5-3,0.7c-0.3,0.1-0.7,0.1-1,0.2
		c-0.3,0.1-0.7,0.1-1,0.2c-0.7,0.1-1.4,0.2-2.1,0.3c-0.3,0-0.7,0.1-1,0.1c-0.3,0-0.7,0-1,0.1c-0.4,0-0.7,0-1.1,0c-0.3,0-0.7,0-1,0
		c-0.7,0-1.4,0-2.1-0.1c-0.3,0-0.7,0-1-0.1c-0.3,0-0.7-0.1-1-0.1c-0.3,0-0.7-0.1-1-0.1c-0.3,0-0.7-0.1-1-0.1c-1.4-0.2-2.7-0.5-4-0.8
		c-0.3-0.1-0.6-0.2-0.9-0.2c-0.1,0-0.1,0-0.2,0c-0.6-0.2-1.2-0.4-1.8-0.6c-0.3-0.1-0.6-0.2-1-0.3c-0.5-0.2-0.9-0.4-1.4-0.5
		c-0.5-0.2-0.9-0.4-1.4-0.6c-0.9-0.4-1.8-0.9-2.7-1.3c-0.6-0.3-1.2-0.6-1.7-1c-0.3-0.2-0.6-0.3-0.8-0.5c-0.4-0.3-0.8-0.5-1.2-0.8
		s-0.8-0.6-1.2-0.9c-0.3-0.2-0.5-0.4-0.8-0.6c-0.3-0.3-0.6-0.5-1-0.8c-0.5-0.4-0.9-0.8-1.4-1.2c-0.5-0.4-0.9-0.8-1.3-1.3
		c-0.4-0.4-0.9-0.9-1.3-1.3c-0.4-0.5-0.8-0.9-1.2-1.4c-0.3-0.3-0.5-0.6-0.8-1c-0.2-0.3-0.4-0.5-0.6-0.8c-0.2-0.3-0.4-0.5-0.6-0.8
		c-0.4-0.5-0.7-1-1-1.5c0,0,0-0.1-0.1-0.1c-0.5-0.8-1-1.7-1.5-2.5c0,0,0,0,0-0.1c-0.2-0.3-0.3-0.6-0.4-0.8c-0.1-0.3-0.3-0.6-0.4-0.9
		c-0.1-0.3-0.3-0.6-0.4-0.9c-0.1-0.3-0.3-0.6-0.4-0.9c-0.1-0.3-0.3-0.6-0.4-0.9c-0.1-0.3-0.2-0.5-0.3-0.8c-0.1-0.2-0.1-0.4-0.2-0.6
		c0-0.1-0.1-0.2-0.1-0.3c-0.1-0.2-0.1-0.3-0.2-0.5c-0.1-0.2-0.2-0.5-0.2-0.7c-0.1-0.2-0.1-0.5-0.2-0.7c-0.1-0.2-0.1-0.3-0.1-0.5
		c-0.1-0.3-0.1-0.5-0.2-0.8c-0.1-0.3-0.1-0.6-0.2-0.9c0-0.1-0.1-0.2-0.1-0.4c-0.1-0.5-0.2-1-0.3-1.5c0,0,0-0.1,0-0.1
		c-0.4-2.4-0.7-4.9-0.7-7.4c0-22.7,18.4-41.1,41.1-41.1c22.7,0,41.1,18.4,41.1,41.1c0,3.9-0.6,7.7-1.6,11.3
		c-0.2,0.5-0.3,1.1-0.5,1.6c-0.1,0.3-0.2,0.5-0.3,0.8c-0.1,0.2-0.2,0.5-0.2,0.7c-0.6,1.5-1.2,3-1.9,4.4c-0.1,0.2-0.2,0.4-0.3,0.7
		c-1.1,2-2.4,4-3.8,5.8c-0.1,0.2-0.2,0.3-0.4,0.5c-1.2,1.5-2.5,2.9-3.8,4.2c-0.2,0.2-0.4,0.3-0.6,0.5c-0.3,0.3-0.6,0.5-0.8,0.8
		c-0.2,0.2-0.5,0.4-0.7,0.6c-0.8,0.6-1.5,1.2-2.4,1.8C150.8,158,150.3,158.4,149.7,158.7"/>
	<path class="st2" d="M226.3,130.6c-1.2,0-2.4,0.1-3.5,0.2c-0.3,0-0.5,0.1-0.8,0.1c-6.6,1.1-10,6.5-15.9,9c-2.4,1-4.9,1.3-7.4,1.1
		c-2.3-0.2-4.5-1-6.6-2c-0.2-0.1-0.3-0.2-0.5-0.2c-8-3.9-16.3-5.9-24.6-3.3c-0.2,0.5-0.3,1.1-0.5,1.6c-0.1,0.3-0.2,0.5-0.3,0.8
		c-0.1,0.2-0.2,0.5-0.2,0.7c-0.6,1.5-1.2,3-1.9,4.4c-0.1,0.2-0.2,0.4-0.3,0.7c-1.1,2-2.4,4-3.8,5.8c-0.1,0.2-0.2,0.3-0.4,0.5
		c-1.2,1.5-2.5,2.9-3.8,4.2c-0.2,0.2-0.4,0.3-0.6,0.5c-0.3,0.3-0.6,0.5-0.8,0.8c-0.2,0.2-0.5,0.4-0.7,0.6c-0.8,0.6-1.5,1.2-2.4,1.8
		c-0.5,0.4-1.1,0.8-1.6,1.1c-0.3,0.2-0.6,0.3-0.8,0.5c0,0,0,0,0,0c-0.3,0.2-0.6,0.3-0.8,0.5c-0.3,0.2-0.6,0.3-0.8,0.5c0,0,0,0,0,0
		c-0.3,0.2-0.6,0.3-0.9,0.5c0,0,0,0,0,0c-0.3,0.2-0.6,0.3-0.9,0.4c-0.6,0.3-1.2,0.6-1.8,0.8c-0.3,0.1-0.6,0.3-0.9,0.4
		c-0.6,0.2-1.2,0.5-1.9,0.7c0,0,0,0-0.1,0c-0.6,0.2-1.2,0.4-1.9,0.6c-1,0.3-2,0.5-3,0.7c-0.3,0.1-0.7,0.1-1,0.2
		c-0.3,0.1-0.7,0.1-1,0.2c-0.7,0.1-1.4,0.2-2.1,0.3c-0.3,0-0.7,0.1-1,0.1c-0.3,0-0.7,0.1-1,0.1c-0.4,0-0.7,0-1.1,0c-0.3,0-0.7,0-1,0
		c-0.7,0-1.4,0-2.1-0.1c-0.3,0-0.7,0-1-0.1c-0.3,0-0.7-0.1-1-0.1c-0.3,0-0.7-0.1-1-0.1c-0.3,0-0.7-0.1-1-0.1c-1.4-0.2-2.7-0.5-4-0.8
		c-0.3-0.1-0.6-0.2-0.9-0.2c-0.1,0-0.1,0-0.2,0c-0.6-0.2-1.2-0.4-1.8-0.6c-0.3-0.1-0.6-0.2-1-0.3c-0.5-0.2-0.9-0.4-1.4-0.5
		c-0.5-0.2-0.9-0.4-1.4-0.6c-0.9-0.4-1.8-0.9-2.7-1.3c-0.6-0.3-1.2-0.6-1.7-1c-0.3-0.2-0.6-0.3-0.8-0.5c-0.4-0.3-0.8-0.5-1.2-0.8
		s-0.8-0.6-1.2-0.9c-0.3-0.2-0.5-0.4-0.8-0.6c-0.3-0.3-0.6-0.5-1-0.8c-0.5-0.4-0.9-0.8-1.4-1.2s-0.9-0.8-1.3-1.3
		c-0.4-0.4-0.9-0.9-1.3-1.3c-0.4-0.5-0.8-0.9-1.2-1.4c-0.3-0.3-0.5-0.6-0.8-1c-0.2-0.3-0.4-0.5-0.6-0.8c-0.2-0.3-0.4-0.5-0.6-0.8
		c-0.4-0.5-0.7-1-1-1.5c0,0,0-0.1-0.1-0.1c-0.5-0.8-1-1.7-1.5-2.5c0,0,0,0,0-0.1c-0.2-0.3-0.3-0.6-0.4-0.8c-0.1-0.3-0.3-0.6-0.4-0.9
		c-0.1-0.3-0.3-0.6-0.4-0.9c-0.1-0.3-0.3-0.6-0.4-0.9c-0.1-0.3-0.3-0.6-0.4-0.9c-0.1-0.3-0.2-0.5-0.3-0.8c-0.1-0.2-0.1-0.4-0.2-0.6
		c0-0.1-0.1-0.2-0.1-0.3c-0.1-0.2-0.1-0.3-0.2-0.5c-0.1-0.2-0.2-0.5-0.2-0.7c-0.1-0.2-0.1-0.5-0.2-0.7c-0.1-0.2-0.1-0.3-0.1-0.5
		c-0.1-0.3-0.1-0.5-0.2-0.8c-0.1-0.3-0.1-0.6-0.2-0.9c0-0.1-0.1-0.2-0.1-0.4c-0.1-0.5-0.2-1-0.3-1.5c0,0,0-0.1,0-0.1
		c-3.6-1-7.4-1.2-11-0.6c-4.6,0.8-7.6,3.5-10.9,6c-1.3,1-2.7,1.9-4.3,2.6c0,0,0,0,0,0c-0.6,0.4-1.2,0.7-2,0.8c0,0,0,0,0,0
		c-2,0.6-4.1,0.8-6.2,0.5c-2.2-0.3-4.4-1-6.5-2c-7.6-3.7-15.3-5.9-23.2-4c0,0.2,0,0.4,0.1,0.6c0,0.4,0.1,0.8,0.1,1.1
		c0.1,0.4,0.1,0.9,0.2,1.3c0.1,0.4,0.1,0.8,0.2,1.2c0,0.3,0.1,0.6,0.1,0.9c0,0.3,0.1,0.6,0.1,0.9c0,0.3,0.1,0.6,0.1,0.9
		c0.1,0.4,0.1,0.9,0.2,1.3c0.1,0.3,0.1,0.6,0.2,0.9c0,0.3,0.1,0.5,0.2,0.8c0.1,0.3,0.1,0.6,0.2,0.9c0.1,0.5,0.2,1,0.3,1.6
		c0.1,0.3,0.1,0.6,0.2,1c0.1,0.3,0.1,0.6,0.2,1c0.1,0.3,0.1,0.6,0.2,0.9c0.1,0.2,0.1,0.5,0.2,0.7c0.1,0.4,0.2,0.8,0.3,1.2
		c0.1,0.4,0.2,0.8,0.3,1.2c0.4,1.5,0.9,3,1.4,4.5c0.1,0.4,0.3,0.7,0.4,1.1c0.1,0.2,0.2,0.4,0.2,0.7l0.4,1c0.4,1.1,0.8,2.2,1.3,3.3
		c0.1,0.3,0.3,0.7,0.4,1c0.4,1,0.8,1.9,1.3,2.9c0.2,0.4,0.4,0.8,0.5,1.2c0.1,0.3,0.3,0.5,0.4,0.8c0.1,0.3,0.3,0.6,0.4,0.8
		c1.1,2.2,2.2,4.3,3.5,6.5c0.2,0.3,0.3,0.6,0.5,0.8c0.8,1.4,1.6,2.7,2.5,4c0.2,0.4,0.5,0.7,0.7,1.1c0.2,0.3,0.5,0.7,0.7,1
		c0.2,0.3,0.5,0.7,0.7,1c0.5,0.7,1,1.4,1.5,2c0.3,0.3,0.5,0.7,0.8,1c0.8,1,1.6,2,2.4,3c0.2,0.2,0.4,0.5,0.6,0.7
		c0.9,1.1,1.9,2.2,2.9,3.3c0.3,0.3,0.6,0.6,0.9,0.9c3.1,3.3,6.4,6.4,9.9,9.3c0.3,0.3,0.6,0.5,1,0.8c0.3,0.3,0.7,0.5,1,0.8
		c0.3,0.3,0.7,0.5,1,0.8c0.3,0.3,0.7,0.5,1,0.8c2.1,1.6,4.2,3,6.4,4.4c0.6,0.4,1.2,0.7,1.8,1.1c0.4,0.3,0.9,0.5,1.3,0.8
		c0.4,0.2,0.7,0.4,1.1,0.6c0.8,0.4,1.6,0.9,2.4,1.3c0.4,0.2,0.7,0.4,1.1,0.6c0.4,0.2,0.8,0.4,1.1,0.6c1.1,0.6,2.2,1.1,3.3,1.6
		c0.4,0.2,0.8,0.4,1.2,0.5c0.8,0.4,1.6,0.7,2.3,1c0.4,0.2,0.8,0.3,1.2,0.5c0.4,0.2,0.8,0.3,1.2,0.5c0.4,0.2,0.8,0.3,1.2,0.5
		c0.2,0.1,0.4,0.2,0.6,0.2c0.2,0.1,0.4,0.2,0.7,0.2c0.1,0.1,0.3,0.1,0.4,0.2c0.6,0.2,1.3,0.4,1.9,0.7c0.4,0.1,0.8,0.3,1.2,0.4
		c0.4,0.1,0.9,0.3,1.3,0.4c0.7,0.2,1.3,0.4,2,0.6c0.6,0.2,1.3,0.4,1.9,0.5c0.7,0.2,1.5,0.4,2.2,0.6c1.4,0.3,2.8,0.7,4.3,0.9
		c0.7,0.1,1.4,0.3,2.1,0.4c3,0.5,6.1,1,9.2,1.2c0.7,0.1,1.5,0.1,2.2,0.2c0.2,0,0.5,0,0.7,0c0.8,0,1.5,0.1,2.3,0.1
		c1.4,0.1,2.8,0.1,4.2,0.1c1.3,0,2.7,0,4-0.1c0.8,0,1.6-0.1,2.3-0.1c0.6,0,1.2-0.1,1.7-0.1c0.6,0,1.2-0.1,1.8-0.2
		c0.3,0,0.6-0.1,1-0.1c0.3,0,0.5-0.1,0.8-0.1c1.3-0.1,2.5-0.3,3.8-0.5c1.6-0.2,3.1-0.5,4.6-0.8c1-0.2,2-0.4,3-0.6v0
		c2.1-0.5,4.1-1,6.1-1.6c0.7-0.2,1.5-0.4,2.2-0.6c0.4-0.1,0.8-0.2,1.2-0.4c0.8-0.2,1.5-0.5,2.3-0.8c1.6-0.6,3.1-1.1,4.7-1.8
		c0.7-0.3,1.5-0.6,2.2-0.9c1.5-0.7,3-1.4,4.5-2.1c0.7-0.3,1.4-0.7,2.1-1.1c2.6-1.3,5.1-2.8,7.5-4.3c0.3-0.2,0.7-0.4,1-0.7
		c0.8-0.5,1.5-1,2.2-1.5c0.6-0.4,1.2-0.8,1.8-1.2c0.3-0.2,0.7-0.5,1-0.7c0.7-0.5,1.3-1,1.9-1.5c0.6-0.5,1.3-1,1.9-1.5
		c0.3-0.3,0.6-0.5,0.9-0.8c0.4-0.3,0.8-0.7,1.2-1c0.2-0.2,0.4-0.4,0.6-0.5c0.3-0.3,0.6-0.5,0.9-0.8c0.3-0.3,0.6-0.5,0.9-0.8
		c0.3-0.3,0.6-0.5,0.9-0.8c0.6-0.5,1.1-1,1.6-1.5c0.2-0.2,0.4-0.4,0.6-0.6c0.4-0.4,0.8-0.8,1.2-1.2c0.3-0.3,0.6-0.6,0.8-0.9
		c1.1-1.1,2.1-2.3,3.2-3.4c0.2-0.2,0.4-0.4,0.6-0.6c1.1-1.3,2.2-2.6,3.3-4c0.2-0.2,0.4-0.5,0.6-0.7c0.6-0.8,1.3-1.7,1.9-2.5
		c0.2-0.3,0.4-0.5,0.6-0.8c0.5-0.7,0.9-1.3,1.4-2c0.2-0.3,0.5-0.7,0.7-1c0.2-0.4,0.5-0.7,0.7-1.1c0.4-0.7,0.8-1.3,1.2-2
		c0.2-0.3,0.4-0.7,0.6-1c1.1-1.8,2.1-3.7,3.1-5.5c1.3-2.6,2.6-5.2,3.7-7.9c0.1-0.3,0.2-0.5,0.3-0.8c0.3-0.8,0.6-1.6,1-2.4
		c0.1-0.3,0.3-0.7,0.4-1c0.3-0.7,0.5-1.4,0.7-2.1c0.1-0.4,0.3-0.8,0.4-1.2c0.1-0.4,0.3-0.8,0.4-1.2c0.1-0.4,0.2-0.8,0.4-1.2
		c0.1-0.4,0.2-0.8,0.3-1.2c0.1-0.4,0.2-0.8,0.3-1.2c0.1-0.3,0.2-0.6,0.3-0.9c0.1-0.5,0.3-1,0.4-1.5c0.1-0.4,0.2-0.8,0.3-1.2
		c0.1-0.4,0.2-0.8,0.3-1.2c0.1-0.3,0.1-0.7,0.2-1c0.1-0.3,0.1-0.5,0.2-0.8c0.1-0.3,0.1-0.6,0.2-0.9c0.1-0.7,0.3-1.4,0.4-2.2
		c0.1-0.4,0.1-0.8,0.2-1.1c0.4-2.1,0.6-4.2,0.9-6.4c0.1-0.8,0.2-1.6,0.2-2.4c0-0.5,0.1-0.9,0.1-1.4
		C230.4,130.8,228.4,130.6,226.3,130.6"/>
	<path class="st3" d="M232,112.7c-0.1-1.1-0.3-2.2-0.4-3.2c0,0,0,0,0,0C231.8,110.5,231.9,111.6,232,112.7"/>
	<path class="st2" d="M54.3,62.7c-0.4,0.9,0.2,1.9,1,2.5c0.8,0.6,1.9,0.4,2.7,0.1c1.5-0.5,3.1-1.1,4.6-1.7c0.6-0.2,1.1-0.9,0.9-1.6
		c-0.2-0.6-0.9-1.1-1.6-0.9c-1.2,0.4-2.4,0.9-3.6,1.3c-0.3,0.1-0.6,0.2-0.9,0.3c-0.1,0-0.2,0.1-0.4,0.1c-0.1,0-0.5,0.1-0.3,0.1
		c-0.1,0-0.2,0-0.2,0c0.1,0,0.1,0,0,0c0,0,0.1,0,0.1,0.1c-0.1-0.1-0.1-0.1,0,0c-0.1-0.1-0.1-0.1,0,0.1c-0.1-0.1-0.1-0.1,0,0.1
		c0-0.1,0-0.1,0,0.1c0,0.2,0,0.2,0,0.1c0.2-0.6-0.3-1.4-0.9-1.6C55.2,61.6,54.6,62,54.3,62.7"/>
	<path class="st2" d="M91.9,46.2c1.2-0.6,2.5-1.2,3.7-1.8c0.3-0.1,0.5-0.5,0.6-0.8c0.1-0.3,0-0.7-0.1-1c-0.2-0.3-0.4-0.5-0.8-0.6
		c-0.4-0.1-0.7,0-1,0.1c-1.2,0.6-2.5,1.2-3.7,1.8c-0.3,0.1-0.5,0.5-0.6,0.8c-0.1,0.3,0,0.7,0.1,1c0.2,0.3,0.4,0.5,0.8,0.6
		C91.3,46.4,91.6,46.3,91.9,46.2"/>
	<path class="st2" d="M131.2,38.5c2.6-0.2,5.1-0.1,7.7,0.2c0.7,0.1,1.3-0.7,1.3-1.3c0-0.8-0.6-1.2-1.3-1.3c-2.5-0.3-5.1-0.4-7.7-0.2
		c-0.7,0.1-1.3,0.6-1.3,1.3C129.9,37.9,130.5,38.6,131.2,38.5"/>
	<path class="st2" d="M81.3,84.3c0.2-1.9,0.1-3.8-0.3-5.6c-0.1-0.7-0.9-1.1-1.6-0.9c-0.7,0.2-1.1,0.9-0.9,1.6c0,0.2,0.1,0.5,0.1,0.7
		c0,0.1,0,0.2,0,0.3c0,0.1,0.1,0.4,0,0.1c0.1,0.4,0.1,0.9,0.1,1.3c0,0.9,0,1.7-0.1,2.6c0,0.3,0.2,0.7,0.4,0.9
		c0.2,0.2,0.6,0.4,0.9,0.4c0.3,0,0.7-0.1,0.9-0.4C81.2,84.9,81.3,84.7,81.3,84.3"/>
	<path class="st2" d="M39.4,89.9c0.9-3.5,2.6-6.7,5-9.5c0.5-0.5,0.5-1.3,0-1.8c-0.5-0.5-1.4-0.5-1.8,0c-2.7,3.1-4.6,6.7-5.6,10.6
		C36.5,90.8,39,91.5,39.4,89.9"/>
	<path class="st4" d="M171.8,65.8V66c0,0.7-0.6,1.3-1.3,1.3c-0.7,0-1.3-0.6-1.3-1.3v-4.8c0-0.7,0.5-1.2,1.2-1.3
		C170.6,62,171,64,171.8,65.8"/>
	<path class="st2" d="M160.2,85.2c-1.2-2.4-3.3-4.3-5.8-5.3c-0.3-0.1-0.7,0-1,0.1c-0.3,0.2-0.5,0.5-0.6,0.8c-0.1,0.3-0.1,0.7,0.1,1
		c0.2,0.3,0.4,0.5,0.8,0.6c0.3,0.1-0.3-0.1,0,0c0.1,0,0.1,0.1,0.2,0.1c0.1,0.1,0.2,0.1,0.3,0.2c0.2,0.1,0.5,0.3,0.7,0.4
		c0.1,0.1,0.3,0.2,0.4,0.3c0.1,0,0.1,0.1,0.2,0.1c0.2,0.1,0,0,0,0c0.1,0.1,0.2,0.2,0.4,0.3c0.1,0.1,0.2,0.2,0.3,0.3
		c0.2,0.2,0.4,0.4,0.6,0.6c0.1,0.1,0.2,0.2,0.3,0.3c0.2,0.2-0.2-0.2,0,0c0,0.1,0.1,0.1,0.1,0.2c0.3,0.5,0.6,1,0.9,1.5
		c0.3,0.6,1.2,0.8,1.8,0.5C160.4,86.6,160.5,85.8,160.2,85.2"/>
	<path class="st2" d="M105.5,62.2c1.2-2.2,2.3-4.5,3.5-6.7c0.3-0.6,0.2-1.4-0.5-1.8c-0.6-0.3-1.4-0.2-1.8,0.5
		c-1.2,2.2-2.3,4.5-3.5,6.7c-0.3,0.6-0.2,1.4,0.5,1.8C104.3,62.9,105.1,62.8,105.5,62.2"/>
	<path class="st2" d="M78.6,103.8c0.2,0.3,0.4,0.6,0.5,0.9c0-0.1-0.1-0.2-0.1-0.3c0.2,0.4,0.3,0.8,0.3,1.2c0-0.1,0-0.2,0-0.3
		c0,0.4,0,0.8,0,1.2c0-0.1,0-0.2,0-0.3c0,0.1,0,0.3-0.1,0.4c-0.1,0.7,0.2,1.4,0.9,1.6c0.7,0.1,1.4-0.2,1.6-0.9
		c0.4-1.6,0.1-3.3-0.9-4.6c-0.2-0.3-0.4-0.5-0.8-0.6c-0.3-0.1-0.7,0-1,0.1c-0.3,0.2-0.5,0.4-0.6,0.8
		C78.4,103.2,78.4,103.6,78.6,103.8"/>
	<path class="st2" d="M60.6,93.5h-2.8c-0.3,0-0.7,0.1-0.9,0.4c-0.2,0.2-0.4,0.6-0.4,0.9c0,0.3,0.1,0.7,0.4,0.9
		c0.3,0.2,0.6,0.4,0.9,0.4h2.8c0.3,0,0.7-0.1,0.9-0.4c0.2-0.2,0.4-0.6,0.4-0.9c0-0.3-0.1-0.7-0.4-0.9C61.3,93.6,61,93.5,60.6,93.5"
		/>
	<path class="st2" d="M32.6,106c-1.1-0.1-2.1-0.3-3.2-0.4c-0.3,0-0.7,0.2-0.9,0.4c-0.2,0.2-0.4,0.6-0.4,0.9c0,0.3,0.1,0.7,0.4,0.9
		c0.1,0.1,0.2,0.1,0.3,0.2c0.2,0.1,0.4,0.2,0.6,0.2c1.1,0.1,2.1,0.3,3.2,0.4c0.3,0,0.7-0.2,0.9-0.4c0.2-0.2,0.4-0.6,0.4-0.9
		c0-0.3-0.1-0.7-0.4-0.9l-0.3-0.2C33,106.1,32.8,106,32.6,106"/>
	<path class="st2" d="M192.3,91.1v1.6c0,0.3,0.1,0.7,0.4,0.9c0.1,0.1,0.3,0.2,0.4,0.3c0.2,0.1,0.3,0.1,0.5,0.1
		c0.3,0,0.7-0.1,0.9-0.4c0.2-0.3,0.4-0.6,0.4-0.9v-1.6c0-0.3-0.1-0.7-0.4-0.9c-0.1-0.1-0.3-0.2-0.4-0.3c-0.2-0.1-0.3-0.1-0.5-0.1
		c-0.3,0-0.7,0.1-0.9,0.4C192.4,90.5,192.3,90.8,192.3,91.1"/>
	<path class="st2" d="M146.6,54.4c0.4,0.7,0.8,1.3,1.2,2c0.2,0.3,0.5,0.5,0.8,0.6c0.3,0.1,0.7,0,1-0.1c0.3-0.2,0.5-0.4,0.6-0.8
		c0.1-0.3,0.1-0.7-0.1-1c-0.4-0.7-0.8-1.3-1.2-2c-0.2-0.3-0.5-0.5-0.8-0.6c-0.3-0.1-0.7,0-1,0.1c-0.3,0.2-0.5,0.4-0.6,0.8
		C146.4,53.7,146.4,54.1,146.6,54.4"/>
	<path class="st2" d="M104.5,30.3c0.1-0.2,0.2-0.3,0.3-0.5c-0.1,0.1-0.1,0.2-0.2,0.3c0.2-0.2,0.3-0.4,0.5-0.5
		c-0.1,0.1-0.2,0.1-0.3,0.2c0.2-0.2,0.4-0.3,0.7-0.4l-0.3,0.1c0.2-0.1,0.5-0.2,0.8-0.2c-0.1,0-0.2,0-0.3,0c0.2,0,0.4,0,0.6,0
		c0.3,0,0.7-0.2,0.9-0.4c0.2-0.2,0.4-0.6,0.4-0.9c0-0.3-0.1-0.7-0.4-0.9c-0.3-0.2-0.6-0.4-0.9-0.4c-0.8-0.1-1.6,0.2-2.3,0.6
		c-0.7,0.4-1.3,1-1.6,1.7c-0.2,0.3-0.2,0.7-0.1,1c0.1,0.3,0.3,0.6,0.6,0.8c0.3,0.2,0.7,0.2,1,0.1C104.1,30.8,104.4,30.6,104.5,30.3"
		/>
	<path class="st2" d="M109.5,74.2v4.6c0,0.7,0.6,1.3,1.3,1.3c0.7,0,1.3-0.6,1.3-1.3v-4.6c0-0.7-0.6-1.3-1.3-1.3
		C110.1,73,109.5,73.5,109.5,74.2"/>
	<path class="st2" d="M172.6,98.8c-0.8,2-1.2,4.1-1.3,6.2c0,0.7,0.6,1.3,1.3,1.3c0.7,0,1.2-0.6,1.3-1.3c0-0.3,0-0.5,0.1-0.8
		c0-0.1,0-0.2,0-0.3c0-0.1,0-0.1,0-0.2c0,0.2,0,0.2,0,0c0.1-0.5,0.2-0.9,0.3-1.4c0.2-1,0.5-1.9,0.9-2.8c0.2-0.6-0.3-1.4-0.9-1.6
		C173.5,97.7,172.9,98.1,172.6,98.8"/>
	<path class="st2" d="M211.3,82.2c1.2,3.6,2.7,7.1,4.5,10.4c0.8,1.5,3,0.2,2.2-1.3c-1.7-3.1-3.1-6.4-4.2-9.8
		c-0.2-0.7-0.9-1.1-1.6-0.9C211.6,80.8,211.1,81.5,211.3,82.2"/>
	<path class="st5" d="M214.8,172.5c-0.9,1.7-1.8,3.4-2.8,5.1c-0.2,0.3-0.4,0.6-0.6,1c-0.4,0.6-0.8,1.2-1.1,1.8
		c-0.2,0.3-0.4,0.7-0.7,1c-0.2,0.3-0.4,0.6-0.6,0.9c-0.4,0.6-0.8,1.2-1.3,1.8c-0.2,0.2-0.4,0.5-0.5,0.7c-0.6,0.8-1.1,1.5-1.7,2.3
		c-0.2,0.2-0.3,0.4-0.5,0.6c-1,1.2-2,2.5-3,3.7c-0.2,0.2-0.3,0.4-0.5,0.6c-0.9,1.1-1.9,2.1-2.9,3.1c-0.3,0.3-0.5,0.5-0.8,0.8
		c-0.4,0.4-0.7,0.7-1.1,1.1c-0.2,0.2-0.4,0.4-0.6,0.6c-0.5,0.5-1,0.9-1.5,1.4c-0.3,0.2-0.5,0.5-0.8,0.7c-0.3,0.2-0.5,0.5-0.8,0.7
		c-0.3,0.2-0.6,0.5-0.8,0.7c-0.2,0.2-0.4,0.3-0.6,0.5c-0.4,0.3-0.7,0.6-1.1,0.9c-0.3,0.2-0.6,0.5-0.9,0.7c-0.6,0.5-1.2,0.9-1.7,1.4
		c-0.6,0.5-1.2,0.9-1.8,1.3c-0.3,0.2-0.6,0.4-0.9,0.6c-0.5,0.4-1.1,0.8-1.6,1.1c-0.7,0.5-1.4,0.9-2,1.3c-0.3,0.2-0.6,0.4-0.9,0.6
		c-2.2,1.4-4.5,2.7-6.8,3.9c-0.6,0.3-1.3,0.6-1.9,1c-1.4,0.7-2.7,1.3-4.1,1.9c-0.7,0.3-1.3,0.6-2,0.8c-1.4,0.6-2.8,1.1-4.3,1.6
		c-0.7,0.2-1.4,0.5-2.1,0.7c-0.4,0.1-0.7,0.2-1.1,0.3c-0.7,0.2-1.3,0.4-2,0.6c-1.8,0.5-3.7,1-5.6,1.4
		C158.4,176.3,194.8,171.5,214.8,172.5"/>
</g>
</svg>
